STARTFONT 2.1
COMMENT Generated from X font `-adobe-times-bold-r-normal--10-100-75-75-p-57-iso8859-1' by getbdf
FONT -adobe-times-bold-r-normal--10-100-75-75-p-57-iso8859-1
SIZE 10 75 75
FONTBOUNDINGBOX 12 13 -1 -3
STARTPROPERTIES 30
FONT_ASCENT 9
FONT_DESCENT 3
DEFAULT_CHAR 0
FOUNDRY "Adobe"
FAMILY_NAME "Times"
WEIGHT_NAME "Bold"
SLANT "R"
SETWIDTH_NAME "Normal"
ADD_STYLE_NAME ""
PIXEL_SIZE 10
POINT_SIZE 100
RESOLUTION_X 75
RESOLUTION_Y 75
SPACING "P"
AVERAGE_WIDTH 57
CHARSET_REGISTRY "ISO8859"
CHARSET_ENCODING "1"
CAP_HEIGHT 7
X_HEIGHT 5
FACE_NAME "Times Bold"
COPYRIGHT "Copyright (c) 1984, 1987 Adobe Systems Incorporated. All Rights Reserved. Copyright (c) 1988, 1991 Digital Equipment Corporation. All Rights Reserved."
NOTICE "Times is a trademark of Linotype-Hell AG and/or its subsidiaries."
_DEC_DEVICE_FONTNAMES 347
RELATIVE_SETWIDTH 50
RELATIVE_WEIGHT 70
FULL_NAME "Times Bold"
FONT "-Adobe-Times-Bold-R-Normal--10-100-75-75-P-57-ISO8859-1"
WEIGHT 10
RESOLUTION 103
QUAD_WIDTH 6
ENDPROPERTIES
CHARS 192
STARTCHAR 0
ENCODING 0
SWIDTH 864 0
DWIDTH 9 0
BBX 7 7 0 0
BITMAP
aa
00
82
00
82
00
aa
ENDCHAR
STARTCHAR 32
ENCODING 32
SWIDTH 192 0
DWIDTH 2 0
BBX 1 1 0 0
BITMAP
00
ENDCHAR
STARTCHAR 33
ENCODING 33
SWIDTH 384 0
DWIDTH 4 0
BBX 2 7 1 0
BITMAP
c0
c0
c0
c0
00
c0
c0
ENDCHAR
STARTCHAR 34
ENCODING 34
SWIDTH 480 0
DWIDTH 5 0
BBX 3 3 1 4
BITMAP
a0
a0
a0
ENDCHAR
STARTCHAR 35
ENCODING 35
SWIDTH 576 0
DWIDTH 6 0
BBX 5 7 0 0
BITMAP
50
50
f8
50
f8
50
50
ENDCHAR
STARTCHAR 36
ENCODING 36
SWIDTH 480 0
DWIDTH 5 0
BBX 5 9 0 -1
BITMAP
20
70
a8
e0
70
38
a8
f0
20
ENDCHAR
STARTCHAR 37
ENCODING 37
SWIDTH 864 0
DWIDTH 9 0
BBX 7 7 0 0
BITMAP
76
dc
e8
10
2e
5a
9c
ENDCHAR
STARTCHAR 38
ENCODING 38
SWIDTH 864 0
DWIDTH 9 0
BBX 7 7 1 0
BITMAP
30
68
68
76
dc
cc
76
ENDCHAR
STARTCHAR 39
ENCODING 39
SWIDTH 288 0
DWIDTH 3 0
BBX 1 3 0 4
BITMAP
80
80
80
ENDCHAR
STARTCHAR 40
ENCODING 40
SWIDTH 384 0
DWIDTH 4 0
BBX 3 10 0 -3
BITMAP
20
60
40
c0
c0
c0
c0
40
60
20
ENDCHAR
STARTCHAR 41
ENCODING 41
SWIDTH 384 0
DWIDTH 4 0
BBX 3 10 0 -3
BITMAP
80
c0
40
60
60
60
60
40
c0
80
ENDCHAR
STARTCHAR 42
ENCODING 42
SWIDTH 576 0
DWIDTH 6 0
BBX 5 5 0 2
BITMAP
20
f8
70
f8
20
ENDCHAR
STARTCHAR 43
ENCODING 43
SWIDTH 576 0
DWIDTH 6 0
BBX 5 5 0 0
BITMAP
20
20
f8
20
20
ENDCHAR
STARTCHAR 44
ENCODING 44
SWIDTH 384 0
DWIDTH 4 0
BBX 2 3 0 -1
BITMAP
c0
c0
40
ENDCHAR
STARTCHAR 45
ENCODING 45
SWIDTH 288 0
DWIDTH 3 0
BBX 3 1 0 2
BITMAP
e0
ENDCHAR
STARTCHAR 46
ENCODING 46
SWIDTH 288 0
DWIDTH 3 0
BBX 2 2 0 0
BITMAP
c0
c0
ENDCHAR
STARTCHAR 47
ENCODING 47
SWIDTH 288 0
DWIDTH 3 0
BBX 3 7 0 0
BITMAP
20
20
60
40
c0
80
80
ENDCHAR
STARTCHAR 48
ENCODING 48
SWIDTH 480 0
DWIDTH 5 0
BBX 4 7 0 0
BITMAP
60
d0
d0
d0
d0
d0
60
ENDCHAR
STARTCHAR 49
ENCODING 49
SWIDTH 480 0
DWIDTH 5 0
BBX 4 7 0 0
BITMAP
60
e0
60
60
60
60
f0
ENDCHAR
STARTCHAR 50
ENCODING 50
SWIDTH 480 0
DWIDTH 5 0
BBX 4 7 0 0
BITMAP
60
f0
30
20
40
f0
f0
ENDCHAR
STARTCHAR 51
ENCODING 51
SWIDTH 480 0
DWIDTH 5 0
BBX 4 7 0 0
BITMAP
60
b0
30
60
30
b0
e0
ENDCHAR
STARTCHAR 52
ENCODING 52
SWIDTH 480 0
DWIDTH 5 0
BBX 5 7 0 0
BITMAP
10
30
50
90
f8
30
30
ENDCHAR
STARTCHAR 53
ENCODING 53
SWIDTH 480 0
DWIDTH 5 0
BBX 4 7 0 0
BITMAP
e0
e0
80
e0
30
b0
e0
ENDCHAR
STARTCHAR 54
ENCODING 54
SWIDTH 480 0
DWIDTH 5 0
BBX 4 7 0 0
BITMAP
30
60
c0
f0
d0
d0
60
ENDCHAR
STARTCHAR 55
ENCODING 55
SWIDTH 480 0
DWIDTH 5 0
BBX 5 7 0 0
BITMAP
78
f0
90
30
20
60
60
ENDCHAR
STARTCHAR 56
ENCODING 56
SWIDTH 480 0
DWIDTH 5 0
BBX 4 7 0 0
BITMAP
60
d0
d0
60
b0
b0
60
ENDCHAR
STARTCHAR 57
ENCODING 57
SWIDTH 480 0
DWIDTH 5 0
BBX 4 7 0 0
BITMAP
60
b0
b0
b0
70
20
c0
ENDCHAR
STARTCHAR 58
ENCODING 58
SWIDTH 384 0
DWIDTH 4 0
BBX 2 5 1 0
BITMAP
c0
c0
00
c0
c0
ENDCHAR
STARTCHAR 59
ENCODING 59
SWIDTH 384 0
DWIDTH 4 0
BBX 2 6 1 -1
BITMAP
c0
c0
00
c0
c0
40
ENDCHAR
STARTCHAR 60
ENCODING 60
SWIDTH 576 0
DWIDTH 6 0
BBX 5 5 0 0
BITMAP
18
70
c0
70
18
ENDCHAR
STARTCHAR 61
ENCODING 61
SWIDTH 576 0
DWIDTH 6 0
BBX 5 3 0 1
BITMAP
f8
00
f8
ENDCHAR
STARTCHAR 62
ENCODING 62
SWIDTH 576 0
DWIDTH 6 0
BBX 5 5 0 0
BITMAP
c0
70
18
70
c0
ENDCHAR
STARTCHAR 63
ENCODING 63
SWIDTH 576 0
DWIDTH 6 0
BBX 4 7 1 0
BITMAP
60
b0
b0
20
00
60
60
ENDCHAR
STARTCHAR 64
ENCODING 64
SWIDTH 1056 0
DWIDTH 11 0
BBX 11 9 0 -2
BITMAP
0f80
30c0
6d60
da60
d260
d240
cd80
6000
3e00
ENDCHAR
STARTCHAR 65
ENCODING 65
SWIDTH 672 0
DWIDTH 7 0
BBX 8 7 -1 0
BITMAP
10
18
38
2c
7c
4e
ef
ENDCHAR
STARTCHAR 66
ENCODING 66
SWIDTH 672 0
DWIDTH 7 0
BBX 6 7 0 0
BITMAP
f8
6c
6c
78
6c
6c
f8
ENDCHAR
STARTCHAR 67
ENCODING 67
SWIDTH 672 0
DWIDTH 7 0
BBX 6 7 0 0
BITMAP
7c
cc
c0
c0
c0
ec
78
ENDCHAR
STARTCHAR 68
ENCODING 68
SWIDTH 768 0
DWIDTH 8 0
BBX 7 7 0 0
BITMAP
fc
66
66
66
66
66
fc
ENDCHAR
STARTCHAR 69
ENCODING 69
SWIDTH 672 0
DWIDTH 7 0
BBX 6 7 0 0
BITMAP
fc
64
60
70
60
64
fc
ENDCHAR
STARTCHAR 70
ENCODING 70
SWIDTH 672 0
DWIDTH 7 0
BBX 6 7 0 0
BITMAP
fc
64
68
78
68
60
f0
ENDCHAR
STARTCHAR 71
ENCODING 71
SWIDTH 672 0
DWIDTH 7 0
BBX 6 7 0 0
BITMAP
7c
cc
c0
dc
cc
cc
78
ENDCHAR
STARTCHAR 72
ENCODING 72
SWIDTH 864 0
DWIDTH 9 0
BBX 8 7 0 0
BITMAP
e7
66
66
7e
66
66
e7
ENDCHAR
STARTCHAR 73
ENCODING 73
SWIDTH 480 0
DWIDTH 5 0
BBX 4 7 0 0
BITMAP
f0
60
60
60
60
60
f0
ENDCHAR
STARTCHAR 74
ENCODING 74
SWIDTH 480 0
DWIDTH 5 0
BBX 4 8 0 -1
BITMAP
f0
60
60
60
60
60
60
c0
ENDCHAR
STARTCHAR 75
ENCODING 75
SWIDTH 768 0
DWIDTH 8 0
BBX 8 7 0 0
BITMAP
ee
64
68
78
6c
6e
e7
ENDCHAR
STARTCHAR 76
ENCODING 76
SWIDTH 672 0
DWIDTH 7 0
BBX 6 7 0 0
BITMAP
f0
60
60
60
64
6c
fc
ENDCHAR
STARTCHAR 77
ENCODING 77
SWIDTH 960 0
DWIDTH 10 0
BBX 9 7 0 0
BITMAP
e380
7300
7700
5b00
5b00
4b00
e380
ENDCHAR
STARTCHAR 78
ENCODING 78
SWIDTH 768 0
DWIDTH 8 0
BBX 7 7 0 0
BITMAP
ee
64
74
54
5c
4c
e4
ENDCHAR
STARTCHAR 79
ENCODING 79
SWIDTH 672 0
DWIDTH 7 0
BBX 6 7 0 0
BITMAP
78
cc
cc
cc
cc
cc
78
ENDCHAR
STARTCHAR 80
ENCODING 80
SWIDTH 576 0
DWIDTH 6 0
BBX 6 7 0 0
BITMAP
f8
6c
6c
78
60
60
f0
ENDCHAR
STARTCHAR 81
ENCODING 81
SWIDTH 672 0
DWIDTH 7 0
BBX 6 9 0 -2
BITMAP
78
cc
cc
cc
cc
cc
78
30
1c
ENDCHAR
STARTCHAR 82
ENCODING 82
SWIDTH 672 0
DWIDTH 7 0
BBX 7 7 0 0
BITMAP
f8
6c
6c
78
68
6c
ee
ENDCHAR
STARTCHAR 83
ENCODING 83
SWIDTH 576 0
DWIDTH 6 0
BBX 5 7 0 0
BITMAP
78
c8
e0
70
38
98
f0
ENDCHAR
STARTCHAR 84
ENCODING 84
SWIDTH 672 0
DWIDTH 7 0
BBX 6 7 0 0
BITMAP
fc
b4
30
30
30
30
78
ENDCHAR
STARTCHAR 85
ENCODING 85
SWIDTH 672 0
DWIDTH 7 0
BBX 7 7 0 0
BITMAP
f6
64
64
64
64
64
38
ENDCHAR
STARTCHAR 86
ENCODING 86
SWIDTH 768 0
DWIDTH 8 0
BBX 8 7 0 0
BITMAP
f3
62
74
34
38
18
10
ENDCHAR
STARTCHAR 87
ENCODING 87
SWIDTH 960 0
DWIDTH 10 0
BBX 10 7 0 0
BITMAP
eec0
6c80
6d80
6d00
3700
3600
1200
ENDCHAR
STARTCHAR 88
ENCODING 88
SWIDTH 672 0
DWIDTH 7 0
BBX 7 7 0 0
BITMAP
e6
64
38
38
2c
46
ce
ENDCHAR
STARTCHAR 89
ENCODING 89
SWIDTH 768 0
DWIDTH 8 0
BBX 8 7 0 0
BITMAP
f7
62
34
38
18
18
3c
ENDCHAR
STARTCHAR 90
ENCODING 90
SWIDTH 672 0
DWIDTH 7 0
BBX 6 7 0 0
BITMAP
fc
cc
98
30
64
cc
fc
ENDCHAR
STARTCHAR 91
ENCODING 91
SWIDTH 384 0
DWIDTH 4 0
BBX 3 10 0 -3
BITMAP
e0
c0
c0
c0
c0
c0
c0
c0
c0
e0
ENDCHAR
STARTCHAR 92
ENCODING 92
SWIDTH 288 0
DWIDTH 3 0
BBX 3 7 0 0
BITMAP
80
80
c0
40
60
20
20
ENDCHAR
STARTCHAR 93
ENCODING 93
SWIDTH 384 0
DWIDTH 4 0
BBX 3 10 0 -3
BITMAP
e0
60
60
60
60
60
60
60
60
e0
ENDCHAR
STARTCHAR 94
ENCODING 94
SWIDTH 576 0
DWIDTH 6 0
BBX 5 4 0 3
BITMAP
20
70
d8
88
ENDCHAR
STARTCHAR 95
ENCODING 95
SWIDTH 480 0
DWIDTH 5 0
BBX 5 1 0 -3
BITMAP
f8
ENDCHAR
STARTCHAR 96
ENCODING 96
SWIDTH 384 0
DWIDTH 4 0
BBX 2 2 1 6
BITMAP
80
40
ENDCHAR
STARTCHAR 97
ENCODING 97
SWIDTH 480 0
DWIDTH 5 0
BBX 5 5 0 0
BITMAP
60
b0
70
90
f8
ENDCHAR
STARTCHAR 98
ENCODING 98
SWIDTH 480 0
DWIDTH 5 0
BBX 4 7 0 0
BITMAP
c0
c0
e0
d0
d0
d0
e0
ENDCHAR
STARTCHAR 99
ENCODING 99
SWIDTH 480 0
DWIDTH 5 0
BBX 4 5 0 0
BITMAP
70
d0
c0
d0
70
ENDCHAR
STARTCHAR 100
ENCODING 100
SWIDTH 576 0
DWIDTH 6 0
BBX 6 7 0 0
BITMAP
38
18
78
d8
d8
d8
6c
ENDCHAR
STARTCHAR 101
ENCODING 101
SWIDTH 480 0
DWIDTH 5 0
BBX 4 5 0 0
BITMAP
70
d0
f0
c0
70
ENDCHAR
STARTCHAR 102
ENCODING 102
SWIDTH 288 0
DWIDTH 3 0
BBX 3 7 0 0
BITMAP
60
c0
e0
c0
c0
c0
e0
ENDCHAR
STARTCHAR 103
ENCODING 103
SWIDTH 480 0
DWIDTH 5 0
BBX 5 8 0 -3
BITMAP
78
d0
d0
70
c0
f0
90
f0
ENDCHAR
STARTCHAR 104
ENCODING 104
SWIDTH 480 0
DWIDTH 5 0
BBX 5 7 0 0
BITMAP
c0
c0
f0
d0
d0
d0
d8
ENDCHAR
STARTCHAR 105
ENCODING 105
SWIDTH 288 0
DWIDTH 3 0
BBX 2 8 0 0
BITMAP
c0
c0
00
c0
c0
c0
c0
c0
ENDCHAR
STARTCHAR 106
ENCODING 106
SWIDTH 384 0
DWIDTH 4 0
BBX 3 10 0 -2
BITMAP
60
60
00
60
60
60
60
60
60
c0
ENDCHAR
STARTCHAR 107
ENCODING 107
SWIDTH 480 0
DWIDTH 5 0
BBX 5 7 0 0
BITMAP
c0
c0
d8
d0
e0
d0
d8
ENDCHAR
STARTCHAR 108
ENCODING 108
SWIDTH 288 0
DWIDTH 3 0
BBX 2 7 0 0
BITMAP
c0
c0
c0
c0
c0
c0
c0
ENDCHAR
STARTCHAR 109
ENCODING 109
SWIDTH 768 0
DWIDTH 8 0
BBX 8 5 0 0
BITMAP
ac
fe
d6
d6
d7
ENDCHAR
STARTCHAR 110
ENCODING 110
SWIDTH 576 0
DWIDTH 6 0
BBX 6 5 0 0
BITMAP
b0
d8
d8
d8
dc
ENDCHAR
STARTCHAR 111
ENCODING 111
SWIDTH 576 0
DWIDTH 6 0
BBX 5 5 0 0
BITMAP
70
d8
d8
d8
70
ENDCHAR
STARTCHAR 112
ENCODING 112
SWIDTH 480 0
DWIDTH 5 0
BBX 4 7 0 -2
BITMAP
e0
d0
d0
d0
e0
c0
e0
ENDCHAR
STARTCHAR 113
ENCODING 113
SWIDTH 480 0
DWIDTH 5 0
BBX 5 7 0 -2
BITMAP
70
d0
d0
d0
70
30
38
ENDCHAR
STARTCHAR 114
ENCODING 114
SWIDTH 384 0
DWIDTH 4 0
BBX 4 5 0 0
BITMAP
d0
f0
c0
c0
c0
ENDCHAR
STARTCHAR 115
ENCODING 115
SWIDTH 384 0
DWIDTH 4 0
BBX 3 5 0 0
BITMAP
60
c0
e0
60
e0
ENDCHAR
STARTCHAR 116
ENCODING 116
SWIDTH 384 0
DWIDTH 4 0
BBX 3 7 0 0
BITMAP
40
c0
e0
c0
c0
c0
60
ENDCHAR
STARTCHAR 117
ENCODING 117
SWIDTH 480 0
DWIDTH 5 0
BBX 5 5 0 0
BITMAP
d8
d0
d0
d0
70
ENDCHAR
STARTCHAR 118
ENCODING 118
SWIDTH 480 0
DWIDTH 5 0
BBX 5 5 0 0
BITMAP
d8
d0
70
60
20
ENDCHAR
STARTCHAR 119
ENCODING 119
SWIDTH 576 0
DWIDTH 6 0
BBX 6 5 0 0
BITMAP
ac
a8
b8
f0
50
ENDCHAR
STARTCHAR 120
ENCODING 120
SWIDTH 480 0
DWIDTH 5 0
BBX 4 5 0 0
BITMAP
d0
f0
60
f0
b0
ENDCHAR
STARTCHAR 121
ENCODING 121
SWIDTH 480 0
DWIDTH 5 0
BBX 5 7 0 -2
BITMAP
d8
d8
70
70
20
a0
e0
ENDCHAR
STARTCHAR 122
ENCODING 122
SWIDTH 480 0
DWIDTH 5 0
BBX 4 5 0 0
BITMAP
f0
b0
60
d0
f0
ENDCHAR
STARTCHAR 123
ENCODING 123
SWIDTH 384 0
DWIDTH 4 0
BBX 4 10 0 -3
BITMAP
30
60
60
40
c0
c0
40
60
60
30
ENDCHAR
STARTCHAR 124
ENCODING 124
SWIDTH 288 0
DWIDTH 3 0
BBX 1 9 1 -2
BITMAP
80
80
80
80
80
80
80
80
80
ENDCHAR
STARTCHAR 125
ENCODING 125
SWIDTH 384 0
DWIDTH 4 0
BBX 4 10 -1 -3
BITMAP
c0
60
60
20
30
30
20
60
60
c0
ENDCHAR
STARTCHAR 126
ENCODING 126
SWIDTH 576 0
DWIDTH 6 0
BBX 5 2 0 2
BITMAP
68
b0
ENDCHAR
STARTCHAR 160
ENCODING 160
SWIDTH 192 0
DWIDTH 2 0
BBX 1 1 0 0
BITMAP
00
ENDCHAR
STARTCHAR 161
ENCODING 161
SWIDTH 384 0
DWIDTH 4 0
BBX 2 7 1 -3
BITMAP
c0
c0
00
c0
c0
c0
c0
ENDCHAR
STARTCHAR 162
ENCODING 162
SWIDTH 576 0
DWIDTH 6 0
BBX 5 7 0 -1
BITMAP
10
78
d0
d0
e0
78
20
ENDCHAR
STARTCHAR 163
ENCODING 163
SWIDTH 576 0
DWIDTH 6 0
BBX 5 7 0 0
BITMAP
38
68
60
f8
60
e8
d8
ENDCHAR
STARTCHAR 164
ENCODING 164
SWIDTH 576 0
DWIDTH 6 0
BBX 5 5 0 1
BITMAP
88
70
50
70
88
ENDCHAR
STARTCHAR 165
ENCODING 165
SWIDTH 576 0
DWIDTH 6 0
BBX 5 7 0 0
BITMAP
d8
d8
70
20
70
20
70
ENDCHAR
STARTCHAR 166
ENCODING 166
SWIDTH 288 0
DWIDTH 3 0
BBX 1 9 1 -2
BITMAP
80
80
80
80
00
80
80
80
80
ENDCHAR
STARTCHAR 167
ENCODING 167
SWIDTH 480 0
DWIDTH 5 0
BBX 4 9 0 -2
BITMAP
60
b0
c0
a0
d0
70
30
d0
60
ENDCHAR
STARTCHAR 168
ENCODING 168
SWIDTH 384 0
DWIDTH 4 0
BBX 3 2 0 6
BITMAP
a0
a0
ENDCHAR
STARTCHAR 169
ENCODING 169
SWIDTH 864 0
DWIDTH 9 0
BBX 7 7 1 0
BITMAP
38
44
9a
a2
9a
44
38
ENDCHAR
STARTCHAR 170
ENCODING 170
SWIDTH 384 0
DWIDTH 4 0
BBX 3 6 0 1
BITMAP
c0
20
e0
a0
00
e0
ENDCHAR
STARTCHAR 171
ENCODING 171
SWIDTH 576 0
DWIDTH 6 0
BBX 5 5 0 0
BITMAP
28
50
a0
50
28
ENDCHAR
STARTCHAR 172
ENCODING 172
SWIDTH 672 0
DWIDTH 7 0
BBX 5 3 1 2
BITMAP
f8
08
08
ENDCHAR
STARTCHAR 173
ENCODING 173
SWIDTH 288 0
DWIDTH 3 0
BBX 3 1 0 2
BITMAP
e0
ENDCHAR
STARTCHAR 174
ENCODING 174
SWIDTH 864 0
DWIDTH 9 0
BBX 7 7 1 0
BITMAP
38
44
ba
b2
aa
44
38
ENDCHAR
STARTCHAR 175
ENCODING 175
SWIDTH 384 0
DWIDTH 4 0
BBX 3 1 0 6
BITMAP
e0
ENDCHAR
STARTCHAR 176
ENCODING 176
SWIDTH 384 0
DWIDTH 4 0
BBX 3 3 0 4
BITMAP
60
a0
c0
ENDCHAR
STARTCHAR 177
ENCODING 177
SWIDTH 576 0
DWIDTH 6 0
BBX 5 7 0 0
BITMAP
20
20
f8
20
20
00
f8
ENDCHAR
STARTCHAR 178
ENCODING 178
SWIDTH 288 0
DWIDTH 3 0
BBX 3 4 0 3
BITMAP
60
a0
40
e0
ENDCHAR
STARTCHAR 179
ENCODING 179
SWIDTH 288 0
DWIDTH 3 0
BBX 3 4 0 3
BITMAP
e0
40
20
c0
ENDCHAR
STARTCHAR 180
ENCODING 180
SWIDTH 384 0
DWIDTH 4 0
BBX 3 2 0 5
BITMAP
60
c0
ENDCHAR
STARTCHAR 181
ENCODING 181
SWIDTH 480 0
DWIDTH 5 0
BBX 5 8 0 -3
BITMAP
d8
d0
d0
d0
f0
80
c0
c0
ENDCHAR
STARTCHAR 182
ENCODING 182
SWIDTH 576 0
DWIDTH 6 0
BBX 6 10 0 -3
BITMAP
7c
e8
e8
e8
68
28
28
28
28
28
ENDCHAR
STARTCHAR 183
ENCODING 183
SWIDTH 288 0
DWIDTH 3 0
BBX 1 2 1 2
BITMAP
80
80
ENDCHAR
STARTCHAR 184
ENCODING 184
SWIDTH 288 0
DWIDTH 3 0
BBX 2 3 1 -3
BITMAP
80
40
c0
ENDCHAR
STARTCHAR 185
ENCODING 185
SWIDTH 288 0
DWIDTH 3 0
BBX 3 4 0 3
BITMAP
40
c0
40
e0
ENDCHAR
STARTCHAR 186
ENCODING 186
SWIDTH 384 0
DWIDTH 4 0
BBX 3 6 0 1
BITMAP
40
a0
a0
40
00
e0
ENDCHAR
STARTCHAR 187
ENCODING 187
SWIDTH 576 0
DWIDTH 6 0
BBX 5 5 0 0
BITMAP
a0
50
28
50
a0
ENDCHAR
STARTCHAR 188
ENCODING 188
SWIDTH 672 0
DWIDTH 7 0
BBX 7 7 0 0
BITMAP
44
c8
48
f4
2c
5e
84
ENDCHAR
STARTCHAR 189
ENCODING 189
SWIDTH 672 0
DWIDTH 7 0
BBX 7 7 0 0
BITMAP
44
c8
48
f6
2a
44
8e
ENDCHAR
STARTCHAR 190
ENCODING 190
SWIDTH 672 0
DWIDTH 7 0
BBX 7 7 0 0
BITMAP
e4
48
28
d4
2c
5e
84
ENDCHAR
STARTCHAR 191
ENCODING 191
SWIDTH 576 0
DWIDTH 6 0
BBX 4 7 1 -3
BITMAP
60
60
00
40
d0
d0
60
ENDCHAR
STARTCHAR 192
ENCODING 192
SWIDTH 672 0
DWIDTH 7 0
BBX 8 10 -1 0
BITMAP
20
10
00
10
18
38
2c
7c
4e
ef
ENDCHAR
STARTCHAR 193
ENCODING 193
SWIDTH 672 0
DWIDTH 7 0
BBX 8 10 -1 0
BITMAP
08
10
00
10
18
38
2c
7c
4e
ef
ENDCHAR
STARTCHAR 194
ENCODING 194
SWIDTH 672 0
DWIDTH 7 0
BBX 8 10 -1 0
BITMAP
18
24
00
10
18
38
2c
7c
4e
ef
ENDCHAR
STARTCHAR 195
ENCODING 195
SWIDTH 672 0
DWIDTH 7 0
BBX 8 10 -1 0
BITMAP
34
58
00
10
18
38
2c
7c
4e
ef
ENDCHAR
STARTCHAR 196
ENCODING 196
SWIDTH 672 0
DWIDTH 7 0
BBX 8 10 -1 0
BITMAP
28
28
00
10
18
38
2c
7c
4e
ef
ENDCHAR
STARTCHAR 197
ENCODING 197
SWIDTH 672 0
DWIDTH 7 0
BBX 8 10 -1 0
BITMAP
10
28
10
10
18
38
2c
7c
4e
ef
ENDCHAR
STARTCHAR 198
ENCODING 198
SWIDTH 864 0
DWIDTH 9 0
BBX 8 7 0 0
BITMAP
7f
39
58
5e
f8
99
df
ENDCHAR
STARTCHAR 199
ENCODING 199
SWIDTH 672 0
DWIDTH 7 0
BBX 6 10 0 -3
BITMAP
7c
cc
c0
c0
c0
ec
78
20
10
30
ENDCHAR
STARTCHAR 200
ENCODING 200
SWIDTH 672 0
DWIDTH 7 0
BBX 6 10 0 0
BITMAP
20
10
00
fc
64
60
70
60
64
fc
ENDCHAR
STARTCHAR 201
ENCODING 201
SWIDTH 672 0
DWIDTH 7 0
BBX 6 10 0 0
BITMAP
08
10
00
fc
64
60
70
60
64
fc
ENDCHAR
STARTCHAR 202
ENCODING 202
SWIDTH 672 0
DWIDTH 7 0
BBX 6 10 0 0
BITMAP
30
48
00
fc
64
60
70
60
64
fc
ENDCHAR
STARTCHAR 203
ENCODING 203
SWIDTH 672 0
DWIDTH 7 0
BBX 6 10 0 0
BITMAP
28
28
00
fc
64
60
70
60
64
fc
ENDCHAR
STARTCHAR 204
ENCODING 204
SWIDTH 480 0
DWIDTH 5 0
BBX 4 10 0 0
BITMAP
40
20
00
f0
60
60
60
60
60
f0
ENDCHAR
STARTCHAR 205
ENCODING 205
SWIDTH 480 0
DWIDTH 5 0
BBX 4 10 0 0
BITMAP
10
20
00
f0
60
60
60
60
60
f0
ENDCHAR
STARTCHAR 206
ENCODING 206
SWIDTH 480 0
DWIDTH 5 0
BBX 4 10 0 0
BITMAP
60
90
00
f0
60
60
60
60
60
f0
ENDCHAR
STARTCHAR 207
ENCODING 207
SWIDTH 480 0
DWIDTH 5 0
BBX 4 10 0 0
BITMAP
a0
a0
00
f0
60
60
60
60
60
f0
ENDCHAR
STARTCHAR 208
ENCODING 208
SWIDTH 768 0
DWIDTH 8 0
BBX 7 7 0 0
BITMAP
fc
66
66
f6
66
66
fc
ENDCHAR
STARTCHAR 209
ENCODING 209
SWIDTH 768 0
DWIDTH 8 0
BBX 7 10 0 0
BITMAP
34
58
00
ee
64
74
54
5c
4c
e4
ENDCHAR
STARTCHAR 210
ENCODING 210
SWIDTH 672 0
DWIDTH 7 0
BBX 6 10 0 0
BITMAP
20
10
00
78
cc
cc
cc
cc
cc
78
ENDCHAR
STARTCHAR 211
ENCODING 211
SWIDTH 672 0
DWIDTH 7 0
BBX 6 10 0 0
BITMAP
08
10
00
78
cc
cc
cc
cc
cc
78
ENDCHAR
STARTCHAR 212
ENCODING 212
SWIDTH 672 0
DWIDTH 7 0
BBX 6 10 0 0
BITMAP
30
48
00
78
cc
cc
cc
cc
cc
78
ENDCHAR
STARTCHAR 213
ENCODING 213
SWIDTH 672 0
DWIDTH 7 0
BBX 6 10 0 0
BITMAP
34
58
00
78
cc
cc
cc
cc
cc
78
ENDCHAR
STARTCHAR 214
ENCODING 214
SWIDTH 672 0
DWIDTH 7 0
BBX 6 10 0 0
BITMAP
50
50
00
78
cc
cc
cc
cc
cc
78
ENDCHAR
STARTCHAR 215
ENCODING 215
SWIDTH 576 0
DWIDTH 6 0
BBX 5 5 0 0
BITMAP
88
70
20
70
88
ENDCHAR
STARTCHAR 216
ENCODING 216
SWIDTH 672 0
DWIDTH 7 0
BBX 8 9 -1 -1
BITMAP
01
3e
66
6e
76
76
66
7c
80
ENDCHAR
STARTCHAR 217
ENCODING 217
SWIDTH 672 0
DWIDTH 7 0
BBX 7 10 0 0
BITMAP
10
08
00
f6
64
64
64
64
64
38
ENDCHAR
STARTCHAR 218
ENCODING 218
SWIDTH 672 0
DWIDTH 7 0
BBX 7 10 0 0
BITMAP
04
08
00
f6
64
64
64
64
64
38
ENDCHAR
STARTCHAR 219
ENCODING 219
SWIDTH 672 0
DWIDTH 7 0
BBX 7 10 0 0
BITMAP
18
24
00
f6
64
64
64
64
64
38
ENDCHAR
STARTCHAR 220
ENCODING 220
SWIDTH 672 0
DWIDTH 7 0
BBX 7 10 0 0
BITMAP
28
28
00
f6
64
64
64
64
64
38
ENDCHAR
STARTCHAR 221
ENCODING 221
SWIDTH 768 0
DWIDTH 8 0
BBX 8 10 0 0
BITMAP
04
08
00
f7
62
34
38
18
18
3c
ENDCHAR
STARTCHAR 222
ENCODING 222
SWIDTH 576 0
DWIDTH 6 0
BBX 6 7 0 0
BITMAP
e0
78
6c
6c
78
60
f0
ENDCHAR
STARTCHAR 223
ENCODING 223
SWIDTH 576 0
DWIDTH 6 0
BBX 5 7 0 0
BITMAP
70
c8
c8
d0
c8
c8
d8
ENDCHAR
STARTCHAR 224
ENCODING 224
SWIDTH 480 0
DWIDTH 5 0
BBX 5 8 0 0
BITMAP
40
20
00
60
b0
70
90
f8
ENDCHAR
STARTCHAR 225
ENCODING 225
SWIDTH 480 0
DWIDTH 5 0
BBX 5 8 0 0
BITMAP
10
20
00
60
b0
70
90
f8
ENDCHAR
STARTCHAR 226
ENCODING 226
SWIDTH 480 0
DWIDTH 5 0
BBX 5 8 0 0
BITMAP
60
90
00
60
b0
70
90
f8
ENDCHAR
STARTCHAR 227
ENCODING 227
SWIDTH 480 0
DWIDTH 5 0
BBX 5 8 0 0
BITMAP
68
b0
00
60
b0
70
90
f8
ENDCHAR
STARTCHAR 228
ENCODING 228
SWIDTH 480 0
DWIDTH 5 0
BBX 5 8 0 0
BITMAP
50
50
00
60
b0
70
90
f8
ENDCHAR
STARTCHAR 229
ENCODING 229
SWIDTH 480 0
DWIDTH 5 0
BBX 5 8 0 0
BITMAP
20
50
20
60
b0
70
90
f8
ENDCHAR
STARTCHAR 230
ENCODING 230
SWIDTH 768 0
DWIDTH 8 0
BBX 7 5 0 0
BITMAP
6e
ba
7e
b8
ee
ENDCHAR
STARTCHAR 231
ENCODING 231
SWIDTH 480 0
DWIDTH 5 0
BBX 4 8 0 -3
BITMAP
70
d0
c0
d0
70
40
20
60
ENDCHAR
STARTCHAR 232
ENCODING 232
SWIDTH 480 0
DWIDTH 5 0
BBX 4 8 0 0
BITMAP
40
20
00
70
d0
f0
c0
70
ENDCHAR
STARTCHAR 233
ENCODING 233
SWIDTH 480 0
DWIDTH 5 0
BBX 4 8 0 0
BITMAP
10
20
00
70
d0
f0
c0
70
ENDCHAR
STARTCHAR 234
ENCODING 234
SWIDTH 480 0
DWIDTH 5 0
BBX 4 8 0 0
BITMAP
60
90
00
70
d0
f0
c0
70
ENDCHAR
STARTCHAR 235
ENCODING 235
SWIDTH 480 0
DWIDTH 5 0
BBX 4 8 0 0
BITMAP
50
50
00
70
d0
f0
c0
70
ENDCHAR
STARTCHAR 236
ENCODING 236
SWIDTH 288 0
DWIDTH 3 0
BBX 2 8 0 0
BITMAP
80
40
00
c0
c0
c0
c0
c0
ENDCHAR
STARTCHAR 237
ENCODING 237
SWIDTH 288 0
DWIDTH 3 0
BBX 2 8 0 0
BITMAP
40
80
00
c0
c0
c0
c0
c0
ENDCHAR
STARTCHAR 238
ENCODING 238
SWIDTH 288 0
DWIDTH 3 0
BBX 4 8 -1 0
BITMAP
60
90
00
60
60
60
60
60
ENDCHAR
STARTCHAR 239
ENCODING 239
SWIDTH 288 0
DWIDTH 3 0
BBX 3 8 -1 0
BITMAP
a0
a0
00
60
60
60
60
60
ENDCHAR
STARTCHAR 240
ENCODING 240
SWIDTH 576 0
DWIDTH 6 0
BBX 5 8 0 0
BITMAP
40
78
b0
78
d8
d8
d8
70
ENDCHAR
STARTCHAR 241
ENCODING 241
SWIDTH 576 0
DWIDTH 6 0
BBX 6 8 0 0
BITMAP
68
b0
00
b0
d8
d8
d8
dc
ENDCHAR
STARTCHAR 242
ENCODING 242
SWIDTH 576 0
DWIDTH 6 0
BBX 5 8 0 0
BITMAP
40
20
00
70
d8
d8
d8
70
ENDCHAR
STARTCHAR 243
ENCODING 243
SWIDTH 576 0
DWIDTH 6 0
BBX 5 8 0 0
BITMAP
10
20
00
70
d8
d8
d8
70
ENDCHAR
STARTCHAR 244
ENCODING 244
SWIDTH 576 0
DWIDTH 6 0
BBX 5 8 0 0
BITMAP
60
90
00
70
d8
d8
d8
70
ENDCHAR
STARTCHAR 245
ENCODING 245
SWIDTH 576 0
DWIDTH 6 0
BBX 5 8 0 0
BITMAP
68
b0
00
70
d8
d8
d8
70
ENDCHAR
STARTCHAR 246
ENCODING 246
SWIDTH 576 0
DWIDTH 6 0
BBX 5 8 0 0
BITMAP
50
50
00
70
d8
d8
d8
70
ENDCHAR
STARTCHAR 247
ENCODING 247
SWIDTH 576 0
DWIDTH 6 0
BBX 5 5 0 0
BITMAP
20
00
f8
00
20
ENDCHAR
STARTCHAR 248
ENCODING 248
SWIDTH 576 0
DWIDTH 6 0
BBX 5 7 0 -1
BITMAP
10
70
d8
d8
d8
70
40
ENDCHAR
STARTCHAR 249
ENCODING 249
SWIDTH 480 0
DWIDTH 5 0
BBX 5 8 0 0
BITMAP
40
20
00
d8
d0
d0
d0
70
ENDCHAR
STARTCHAR 250
ENCODING 250
SWIDTH 480 0
DWIDTH 5 0
BBX 5 8 0 0
BITMAP
10
20
00
d8
d0
d0
d0
70
ENDCHAR
STARTCHAR 251
ENCODING 251
SWIDTH 480 0
DWIDTH 5 0
BBX 5 8 0 0
BITMAP
60
90
00
d8
d0
d0
d0
70
ENDCHAR
STARTCHAR 252
ENCODING 252
SWIDTH 480 0
DWIDTH 5 0
BBX 5 8 0 0
BITMAP
50
50
00
d8
d0
d0
d0
70
ENDCHAR
STARTCHAR 253
ENCODING 253
SWIDTH 480 0
DWIDTH 5 0
BBX 5 11 0 -3
BITMAP
10
20
00
d8
d8
70
70
20
20
c0
c0
ENDCHAR
STARTCHAR 254
ENCODING 254
SWIDTH 480 0
DWIDTH 5 0
BBX 4 10 0 -3
BITMAP
c0
c0
e0
d0
d0
d0
e0
c0
c0
c0
ENDCHAR
STARTCHAR 255
ENCODING 255
SWIDTH 480 0
DWIDTH 5 0
BBX 5 11 0 -3
BITMAP
50
50
00
d8
d8
70
70
20
20
c0
c0
ENDCHAR
ENDFONT
